# xmcd CD database file
#
# Track frame offsets:
#	150
#	30978
#	52365
#	72165
#	101199
#	120266
#	142597
#	166601
#	197576
#	220981
#	234175
#	258260
#	271840
#
# Disc length: 3827 seconds
#
# Revision: 0
# Processed by: cddbd v1.5.2PL0 Copyright (c) Steve Scherf et al.
# Submitted via: CDex 1.70beta2
#
DISCID=a80ef10d
DTITLE=Salsa Brava - Salsa Brava_1
DYEAR=1900
DGENRE=Salsa
TTITLE0=decisiones
TTITLE1=sonido bestial
TTITLE2=rebelion
TTITLE3=oye como va
TTITLE4=pedro nevajas
TTITLE5=juanito alimana
TTITLE6=sopa en botella
TTITLE7=richie's jala jala
TTITLE8=gitana
TTITLE9=lloraras
TTITLE10=el preso
TTITLE11=el carretero
TTITLE12=la juma de ayer
EXTD=
EXTT0=
EXTT1=
EXTT2=
EXTT3=
EXTT4=
EXTT5=
EXTT6=
EXTT7=
EXTT8=
EXTT9=
EXTT10=
EXTT11=
EXTT12=
PLAYORDER=
